<svg id="Layer_2" data-name="Layer 2" xmlns="http://www.w3.org/2000/svg" viewBox="0 0 300.66 201.27"><defs><style>.cls-1{fill:none;stroke:#fff;stroke-miterlimit:10;}</style></defs><title>hand_illustration</title><path class="cls-1" d="M56.24,201.59C58.41,199.42,79,160.1,111,134.87c0,0,9.31,4.34,34.22-4.88s49.52-22.53,49.52-22.53,23.1-14.52,30-31.45S238,35.3,238,35.3s2.4-9.15-3.78-7.78-10.29,8.12-10.29,8.12-6.17,10.3-5.6,18.87c0,0-12.93,6.75-12.7,21.39A42.76,42.76,0,0,0,190,85.05s9.49-30.19,9.49-49.29-13.38,3.08-13.38,3.08-5.15,6.75-3.89,18.42c0,0-6.86,5-8.35,19.1,0,0-9.38,8.92-10.52,16,0,0-9-6.06-35.34-1.38,0,0-38.2-7.66-52,15.56" transform="translate(-0.47 -0.68)"/><path class="cls-1" d="M226.55,77.38s9,3.21,29-14.63,25-21.27,25-21.27,10.17-7.1,4.91-9.5-16.12-3-29.27,11c0,0-15.79,1.95-20.13,8.58" transform="translate(-0.47 -0.68)"/><path class="cls-1" d="M263,59.77s12.47-2.4,20.7-1.37a19,19,0,0,0,14.07-4.27s8.46-5.34-3.89-8.08-13.38-1.49-13.38-1.49" transform="translate(-0.47 -0.68)"/><path class="cls-1" d="M253.74,42.05A63.67,63.67,0,0,0,239,40.93" transform="translate(-0.47 -0.68)"/><path class="cls-1" d="M218.83,40.33s-12.52-.36-17.24.55" transform="translate(-0.47 -0.68)"/><path class="cls-1" d="M184,39s-19.47-.77-21.44-3.51c0,0,22.21-9.87,26.59-17.67S191.3,4.65,191.3,4.65s-3-9.09-21.53,2.14S138,19.23,138,19.23s-36.37,1-48.2,14.93-16.3,13.89-33,51S.63,135.54.63,135.54" transform="translate(-0.47 -0.68)"/><path class="cls-1" d="M196.87,64c.21,0,10.25-2.57,15.4-7.54" transform="translate(-0.47 -0.68)"/><path class="cls-1" d="M196.87,66.41A36.17,36.17,0,0,1,207,63.83" transform="translate(-0.47 -0.68)"/><path class="cls-1" d="M103.5,59.77S151,55.66,160.22,36.45" transform="translate(-0.47 -0.68)"/></svg>