<?xml version="1.0" encoding="utf-8"?>
<!-- Generator: Adobe Illustrator 21.0.2, SVG Export Plug-In . SVG Version: 6.00 Build 0)  -->
<svg version="1.1" xmlns="http://www.w3.org/2000/svg" xmlns:xlink="http://www.w3.org/1999/xlink" x="0px" y="0px"
	 viewBox="0 0 138.9 66.3" enable-background="new 0 0 138.9 66.3" xml:space="preserve">
<g id="Hintergrund">
	<rect fill="none" width="138.9" height="66.3"/>
</g>
<g id="Logo">
	<path fill-rule="evenodd" clip-rule="evenodd" fill="#0E1131" d="M63.5,13.3c-4.3,0-6.8,3.1-6.8,9.8c0,6.7,2.5,9.8,6.8,9.8
		c4.3,0,6.8-3.1,6.8-9.8C70.3,16.4,67.8,13.3,63.5,13.3 M63.5,29c-1.4,0-2.1-1.3-2.1-5.9c0-4.6,0.7-5.9,2.1-5.9
		c1.4,0,2.1,1.3,2.1,5.9C65.6,27.7,64.9,29,63.5,29"/>
	<path fill-rule="evenodd" clip-rule="evenodd" fill="#0E1131" d="M125.6,52.7l-2.8-8.2c1.5-0.9,2.5-2.5,2.5-5
		c0-4.2-2.5-5.8-5.9-5.8h-6.6v19h4.5v-7.3h1.2l2.2,7.3H125.6z M120.8,39.6c0,1.6-0.5,2.3-1.8,2.3h-1.7v-4.6h1.8
		C120.3,37.3,120.8,38,120.8,39.6"/>
	<polygon fill-rule="evenodd" clip-rule="evenodd" fill="#0E1131" points="112,52.7 112,48.8 105.3,48.8 105.3,44.7 109.7,44.7 
		109.7,40.8 105.3,40.8 105.3,37.6 112,37.6 112,33.7 100.8,33.7 100.8,52.7 	"/>
	<path fill-rule="evenodd" clip-rule="evenodd" fill="#0E1131" d="M100,52.7v-3.8h-2.9c-1.3,0-2.8,0-3.9,0.1
		c0.6-0.9,1.6-2.8,2.4-4.2l4.3-7.6v-3.4H88.1v3.8h3c1.3,0,2.9,0,3.9-0.1c-0.6,0.9-1.7,2.8-2.5,4.2l-4.4,7.7v3.4H100z"/>
	<rect x="82.7" y="33.7" fill-rule="evenodd" clip-rule="evenodd" fill="#0E1131" width="4.6" height="19"/>
	<polygon fill-rule="evenodd" clip-rule="evenodd" fill="#0E1131" points="81.8,52.7 81.8,48.8 75,48.8 75,44.7 79.3,44.7 
		79.3,40.8 75,40.8 75,37.6 81.8,37.6 81.8,33.7 70.5,33.7 70.5,52.7 	"/>
	<path fill-rule="evenodd" clip-rule="evenodd" fill="#0E1131" d="M70.6,33.7h-4.4l-0.4,3.5c-0.3,2.4-0.6,5.6-0.8,8
		c-0.2-2.4-0.6-5.6-1-8l-0.5-3.5h-3.9L59,37.2c-0.4,2.4-0.8,5.6-1,8c-0.1-2.4-0.5-5.6-0.8-8l-0.4-3.5h-4.4l3.3,19h4.2l0.6-3.7
		c0.5-2.9,0.9-6.1,1-7.7c0.1,1.7,0.6,4.8,1,7.7l0.6,3.7h4.2L70.6,33.7z"/>
	<polygon fill-rule="evenodd" clip-rule="evenodd" fill="#0E1131" points="52.5,52.7 52.5,33.7 47.9,33.7 47.9,40.8 44.1,40.8 
		44.1,33.7 39.5,33.7 39.5,52.7 44.1,52.7 44.1,44.7 47.9,44.7 47.9,52.7 	"/>
	<path fill-rule="evenodd" clip-rule="evenodd" fill="#0E1131" d="M38.6,47.4L34.4,46c-0.5,2.3-0.9,3.1-1.9,3.1
		c-1.5,0-2.1-1.6-2.1-5.9c0-4.3,0.6-5.9,2-5.9c1.1,0,1.4,1.1,1.7,3.2l4.4-1.2c-0.7-3.6-2.1-5.9-6.1-5.9c-4.2,0-6.8,3.2-6.8,9.8
		c0,6.4,2.3,9.8,6.7,9.8C36.2,53,37.8,50.9,38.6,47.4"/>
	<path fill-rule="evenodd" clip-rule="evenodd" fill="#0E1131" d="M25.2,47.4c0-3.2-1.4-4.8-5.2-6.4c-1.9-0.8-2.4-1.4-2.4-2.4
		c0-0.7,0.5-1.4,1.4-1.4c1.2,0,1.7,0.5,3,2l3.2-2.8c-1.6-2-3-3-6-3c-3.6,0-5.9,2.4-5.9,5.5c0,3,1.4,4.4,5.2,6.1
		c2.1,0.9,2.4,1.6,2.4,2.7c0,1-0.7,1.5-1.6,1.5c-0.9,0-2-0.8-3.2-2.3l-3.1,2.8C14.3,51.8,16,53,19,53C22.5,53,25.2,51,25.2,47.4"/>
	<path fill-rule="evenodd" clip-rule="evenodd" fill="#0E1131" d="M123.7,32.6v-19h-4.3v4.3c0,1.7,0.1,4.4,0.2,5.4
		c-0.4-1-1.4-3.4-2.5-5.3l-2.4-4.3h-4v19h4.3v-5.4c0-1.8,0-4.2-0.1-5.3c0.4,1.1,1.4,3.2,2.4,5.2l2.8,5.5H123.7z"/>
	<polygon fill-rule="evenodd" clip-rule="evenodd" fill="#0E1131" points="109.8,32.6 109.8,28.7 103.2,28.7 103.2,24.6 107.5,24.6 
		107.5,20.7 103.2,20.7 103.2,17.5 109.8,17.5 109.8,13.6 98.7,13.6 98.7,32.6 	"/>
	<polygon fill-rule="evenodd" clip-rule="evenodd" fill="#0E1131" points="97.9,32.6 97.9,13.6 93.3,13.6 93.3,20.7 89.4,20.7 
		89.4,13.6 84.8,13.6 84.8,32.6 89.4,32.6 89.4,24.7 93.3,24.7 93.3,32.6 	"/>
	<path fill-rule="evenodd" clip-rule="evenodd" fill="#0E1131" d="M84.3,27.3l-4.5-1.4c-0.5,2.3-0.9,3.1-1.9,3.1
		c-1.5,0-2.1-1.6-2.1-5.9c0-4.3,0.6-5.9,2-5.9c1.1,0,1.4,1.1,1.7,3.2l4.4-1.2c-0.7-3.6-2.1-5.9-6.1-5.9c-4.2,0-6.8,3.2-6.8,9.8
		c0,6.4,2.3,9.8,6.7,9.8C81.6,32.9,83.5,30.8,84.3,27.3"/>
	<path fill="#0E1131" d="M55.8,26.1V13.6h-4.6v13c0,1.6-0.5,2.4-1.6,2.4c-1.3,0-1.7-1.1-2.1-3l-4.4,1c0.6,3.6,2.3,5.9,6.4,5.9
		C53.8,32.9,55.8,30.5,55.8,26.1"/>
</g>
</svg>
